# xmcd CD database file
#
# Track frame offsets:
#	150
#	17061
#	30603
#	45247
#	68224
#	87955
#	110599
#	126343
#	150472
#	163718
#	187539
#	200664
#	205262
#	223897
#
# Disc length: 3176 seconds
#
# Revision: 1
# Processed by: cddbd v1.5.2PL0 Copyright (c) Steve Scherf et al.
# Submitted via: CDex 1.70beta2
#
DISCID=bc0c660e
DTITLE=Female Affairs - Stimmig
DYEAR=2008
DGENRE=Jazz
TTITLE0=Esperanza
TTITLE1=Via con me
TTITLE2=Pasta und Ruccola
TTITLE3=Nur für Dich
TTITLE4=Under The Bridge
TTITLE5=Es regnet Männer
TTITLE6=In My Life
TTITLE7=Männer sind nicht alle gleich
TTITLE8=Porsche Willi
TTITLE9=Virtual Insanity
TTITLE10=Sunday Into Saturday
TTITLE11=Fisch im Wasser
TTITLE12=Alles Schein
TTITLE13=Bei Männern, welche Liebe fühlen
EXTD=YEAR: 2008
EXTT0=
EXTT1=
EXTT2=
EXTT3=
EXTT4=
EXTT5=
EXTT6=
EXTT7=
EXTT8=
EXTT9=
EXTT10=
EXTT11=
EXTT12=
EXTT13=
PLAYORDER=
